<mxfile host="app.diagrams.net" agent="Mozilla/5.0 (Windows NT 10.0; Win64; x64) AppleWebKit/537.36 (KHTML, like Gecko) Chrome/141.0.0.0 Safari/537.36" version="28.2.8">
  <diagram name="페이지-1" id="q91ljZlmKm9seafSr8D9">
    <mxGraphModel dx="921" dy="607" grid="1" gridSize="10" guides="1" tooltips="1" connect="1" arrows="1" fold="1" page="1" pageScale="1" pageWidth="827" pageHeight="1169" math="0" shadow="0">
      <root>
        <mxCell id="0" />
        <mxCell id="1" parent="0" />
        <mxCell id="MFRBWr90Yql4F0Qcdxg9-14" style="rounded=0;orthogonalLoop=1;jettySize=auto;html=1;exitX=0.5;exitY=1;exitDx=0;exitDy=0;entryX=0.5;entryY=0;entryDx=0;entryDy=0;endArrow=none;endFill=0;" edge="1" parent="1" source="MFRBWr90Yql4F0Qcdxg9-1" target="MFRBWr90Yql4F0Qcdxg9-13">
          <mxGeometry relative="1" as="geometry" />
        </mxCell>
        <mxCell id="MFRBWr90Yql4F0Qcdxg9-1" value="포인트" style="rounded=0;whiteSpace=wrap;html=1;" vertex="1" parent="1">
          <mxGeometry x="117.5" y="70" width="120" height="60" as="geometry" />
        </mxCell>
        <mxCell id="MFRBWr90Yql4F0Qcdxg9-2" value="포인트 id" style="ellipse;whiteSpace=wrap;html=1;fontStyle=4" vertex="1" parent="1">
          <mxGeometry x="97.5" y="20" width="45" height="30" as="geometry" />
        </mxCell>
        <mxCell id="MFRBWr90Yql4F0Qcdxg9-6" style="rounded=0;orthogonalLoop=1;jettySize=auto;html=1;exitX=0.5;exitY=1;exitDx=0;exitDy=0;entryX=0.5;entryY=0;entryDx=0;entryDy=0;endArrow=none;endFill=0;" edge="1" parent="1" source="MFRBWr90Yql4F0Qcdxg9-3" target="MFRBWr90Yql4F0Qcdxg9-1">
          <mxGeometry relative="1" as="geometry" />
        </mxCell>
        <mxCell id="MFRBWr90Yql4F0Qcdxg9-3" value="등급 id" style="ellipse;whiteSpace=wrap;html=1;" vertex="1" parent="1">
          <mxGeometry x="155" y="20" width="45" height="30" as="geometry" />
        </mxCell>
        <mxCell id="MFRBWr90Yql4F0Qcdxg9-7" style="rounded=0;orthogonalLoop=1;jettySize=auto;html=1;exitX=0;exitY=1;exitDx=0;exitDy=0;entryX=0.75;entryY=0;entryDx=0;entryDy=0;endArrow=none;endFill=0;" edge="1" parent="1" source="MFRBWr90Yql4F0Qcdxg9-4" target="MFRBWr90Yql4F0Qcdxg9-1">
          <mxGeometry relative="1" as="geometry" />
        </mxCell>
        <mxCell id="MFRBWr90Yql4F0Qcdxg9-4" value="유저 id" style="ellipse;whiteSpace=wrap;html=1;fillColor=#dae8fc;strokeColor=#6c8ebf;" vertex="1" parent="1">
          <mxGeometry x="217.5" y="20" width="45" height="30" as="geometry" />
        </mxCell>
        <mxCell id="MFRBWr90Yql4F0Qcdxg9-5" style="rounded=0;orthogonalLoop=1;jettySize=auto;html=1;exitX=0.5;exitY=1;exitDx=0;exitDy=0;entryX=0.133;entryY=-0.033;entryDx=0;entryDy=0;entryPerimeter=0;endArrow=none;endFill=0;" edge="1" parent="1" source="MFRBWr90Yql4F0Qcdxg9-2" target="MFRBWr90Yql4F0Qcdxg9-1">
          <mxGeometry relative="1" as="geometry" />
        </mxCell>
        <mxCell id="MFRBWr90Yql4F0Qcdxg9-8" value="등급" style="rounded=0;whiteSpace=wrap;html=1;" vertex="1" parent="1">
          <mxGeometry x="120" y="270" width="120" height="60" as="geometry" />
        </mxCell>
        <mxCell id="MFRBWr90Yql4F0Qcdxg9-11" style="rounded=0;orthogonalLoop=1;jettySize=auto;html=1;exitX=0.5;exitY=0;exitDx=0;exitDy=0;entryX=0.25;entryY=1;entryDx=0;entryDy=0;endArrow=none;endFill=0;" edge="1" parent="1" source="MFRBWr90Yql4F0Qcdxg9-9" target="MFRBWr90Yql4F0Qcdxg9-8">
          <mxGeometry relative="1" as="geometry" />
        </mxCell>
        <mxCell id="MFRBWr90Yql4F0Qcdxg9-9" value="등급 id" style="ellipse;whiteSpace=wrap;html=1;fontStyle=4" vertex="1" parent="1">
          <mxGeometry x="110" y="370" width="45" height="30" as="geometry" />
        </mxCell>
        <mxCell id="MFRBWr90Yql4F0Qcdxg9-12" style="rounded=0;orthogonalLoop=1;jettySize=auto;html=1;exitX=0.5;exitY=0;exitDx=0;exitDy=0;entryX=0.75;entryY=1;entryDx=0;entryDy=0;endArrow=none;endFill=0;" edge="1" parent="1" source="MFRBWr90Yql4F0Qcdxg9-10" target="MFRBWr90Yql4F0Qcdxg9-8">
          <mxGeometry relative="1" as="geometry" />
        </mxCell>
        <mxCell id="MFRBWr90Yql4F0Qcdxg9-10" value="등급명" style="ellipse;whiteSpace=wrap;html=1;" vertex="1" parent="1">
          <mxGeometry x="202.5" y="370" width="45" height="30" as="geometry" />
        </mxCell>
        <mxCell id="MFRBWr90Yql4F0Qcdxg9-15" style="rounded=0;orthogonalLoop=1;jettySize=auto;html=1;exitX=0.5;exitY=1;exitDx=0;exitDy=0;entryX=0.5;entryY=0;entryDx=0;entryDy=0;endArrow=none;endFill=0;" edge="1" parent="1" source="MFRBWr90Yql4F0Qcdxg9-13" target="MFRBWr90Yql4F0Qcdxg9-8">
          <mxGeometry relative="1" as="geometry" />
        </mxCell>
        <mxCell id="MFRBWr90Yql4F0Qcdxg9-13" value="소속" style="rhombus;whiteSpace=wrap;html=1;" vertex="1" parent="1">
          <mxGeometry x="131.25" y="170" width="92.5" height="60" as="geometry" />
        </mxCell>
        <mxCell id="MFRBWr90Yql4F0Qcdxg9-18" value="선호하는 극장" style="rounded=0;whiteSpace=wrap;html=1;" vertex="1" parent="1">
          <mxGeometry x="380" y="160" width="120" height="60" as="geometry" />
        </mxCell>
        <mxCell id="MFRBWr90Yql4F0Qcdxg9-25" style="rounded=0;orthogonalLoop=1;jettySize=auto;html=1;exitX=0.5;exitY=1;exitDx=0;exitDy=0;entryX=0.25;entryY=0;entryDx=0;entryDy=0;endArrow=none;endFill=0;" edge="1" parent="1" source="MFRBWr90Yql4F0Qcdxg9-19" target="MFRBWr90Yql4F0Qcdxg9-18">
          <mxGeometry relative="1" as="geometry" />
        </mxCell>
        <mxCell id="MFRBWr90Yql4F0Qcdxg9-19" value="선호극장 id" style="ellipse;whiteSpace=wrap;html=1;fontStyle=4" vertex="1" parent="1">
          <mxGeometry x="360" y="110" width="45" height="30" as="geometry" />
        </mxCell>
        <mxCell id="MFRBWr90Yql4F0Qcdxg9-23" style="rounded=0;orthogonalLoop=1;jettySize=auto;html=1;exitX=0.5;exitY=1;exitDx=0;exitDy=0;entryX=0.5;entryY=0;entryDx=0;entryDy=0;endArrow=none;endFill=0;" edge="1" parent="1" source="MFRBWr90Yql4F0Qcdxg9-20" target="MFRBWr90Yql4F0Qcdxg9-18">
          <mxGeometry relative="1" as="geometry" />
        </mxCell>
        <mxCell id="MFRBWr90Yql4F0Qcdxg9-20" value="극장 id" style="ellipse;whiteSpace=wrap;html=1;fillColor=#dae8fc;strokeColor=#6c8ebf;" vertex="1" parent="1">
          <mxGeometry x="417.5" y="110" width="45" height="30" as="geometry" />
        </mxCell>
        <mxCell id="MFRBWr90Yql4F0Qcdxg9-24" style="rounded=0;orthogonalLoop=1;jettySize=auto;html=1;exitX=0;exitY=1;exitDx=0;exitDy=0;entryX=0.75;entryY=0;entryDx=0;entryDy=0;endArrow=none;endFill=0;" edge="1" parent="1" source="MFRBWr90Yql4F0Qcdxg9-21" target="MFRBWr90Yql4F0Qcdxg9-18">
          <mxGeometry relative="1" as="geometry" />
        </mxCell>
        <mxCell id="MFRBWr90Yql4F0Qcdxg9-21" value="유저 id" style="ellipse;whiteSpace=wrap;html=1;fillColor=#dae8fc;strokeColor=#6c8ebf;" vertex="1" parent="1">
          <mxGeometry x="480" y="110" width="45" height="30" as="geometry" />
        </mxCell>
        <mxCell id="MFRBWr90Yql4F0Qcdxg9-26" value="영화관람권" style="rounded=0;whiteSpace=wrap;html=1;" vertex="1" parent="1">
          <mxGeometry x="347.5" y="270" width="120" height="60" as="geometry" />
        </mxCell>
        <mxCell id="MFRBWr90Yql4F0Qcdxg9-35" style="rounded=0;orthogonalLoop=1;jettySize=auto;html=1;exitX=0.5;exitY=0;exitDx=0;exitDy=0;entryX=0.25;entryY=1;entryDx=0;entryDy=0;endArrow=none;endFill=0;" edge="1" parent="1" source="MFRBWr90Yql4F0Qcdxg9-27" target="MFRBWr90Yql4F0Qcdxg9-26">
          <mxGeometry relative="1" as="geometry" />
        </mxCell>
        <mxCell id="MFRBWr90Yql4F0Qcdxg9-27" value="관람권명" style="ellipse;whiteSpace=wrap;html=1;" vertex="1" parent="1">
          <mxGeometry x="352.5" y="350" width="45" height="30" as="geometry" />
        </mxCell>
        <mxCell id="MFRBWr90Yql4F0Qcdxg9-28" value="유효기간_끝" style="ellipse;whiteSpace=wrap;html=1;" vertex="1" parent="1">
          <mxGeometry x="467.5" y="350" width="45" height="30" as="geometry" />
        </mxCell>
        <mxCell id="MFRBWr90Yql4F0Qcdxg9-39" style="rounded=0;orthogonalLoop=1;jettySize=auto;html=1;exitX=0;exitY=0.5;exitDx=0;exitDy=0;entryX=1;entryY=0.25;entryDx=0;entryDy=0;endArrow=none;endFill=0;" edge="1" parent="1" source="MFRBWr90Yql4F0Qcdxg9-29" target="MFRBWr90Yql4F0Qcdxg9-26">
          <mxGeometry relative="1" as="geometry" />
        </mxCell>
        <mxCell id="MFRBWr90Yql4F0Qcdxg9-29" value="유저 id" style="ellipse;whiteSpace=wrap;html=1;fillColor=#dae8fc;strokeColor=#6c8ebf;" vertex="1" parent="1">
          <mxGeometry x="480" y="260" width="45" height="30" as="geometry" />
        </mxCell>
        <mxCell id="MFRBWr90Yql4F0Qcdxg9-38" style="rounded=0;orthogonalLoop=1;jettySize=auto;html=1;exitX=0;exitY=0;exitDx=0;exitDy=0;entryX=1;entryY=0.75;entryDx=0;entryDy=0;endArrow=none;endFill=0;" edge="1" parent="1" source="MFRBWr90Yql4F0Qcdxg9-30" target="MFRBWr90Yql4F0Qcdxg9-26">
          <mxGeometry relative="1" as="geometry" />
        </mxCell>
        <mxCell id="MFRBWr90Yql4F0Qcdxg9-30" value="사용상태" style="ellipse;whiteSpace=wrap;html=1;" vertex="1" parent="1">
          <mxGeometry x="472.5" y="310" width="45" height="30" as="geometry" />
        </mxCell>
        <mxCell id="MFRBWr90Yql4F0Qcdxg9-31" value="유효기간_시작" style="ellipse;whiteSpace=wrap;html=1;" vertex="1" parent="1">
          <mxGeometry x="408.5" y="350" width="45" height="30" as="geometry" />
        </mxCell>
        <mxCell id="MFRBWr90Yql4F0Qcdxg9-34" style="rounded=0;orthogonalLoop=1;jettySize=auto;html=1;exitX=0.5;exitY=0;exitDx=0;exitDy=0;entryX=0;entryY=1;entryDx=0;entryDy=0;endArrow=none;endFill=0;" edge="1" parent="1" source="MFRBWr90Yql4F0Qcdxg9-32" target="MFRBWr90Yql4F0Qcdxg9-26">
          <mxGeometry relative="1" as="geometry" />
        </mxCell>
        <mxCell id="MFRBWr90Yql4F0Qcdxg9-32" value="영화관람권 id" style="ellipse;whiteSpace=wrap;html=1;fontStyle=4" vertex="1" parent="1">
          <mxGeometry x="302.5" y="340" width="45" height="30" as="geometry" />
        </mxCell>
        <mxCell id="MFRBWr90Yql4F0Qcdxg9-36" style="rounded=0;orthogonalLoop=1;jettySize=auto;html=1;exitX=0.5;exitY=0;exitDx=0;exitDy=0;entryX=0.625;entryY=1.017;entryDx=0;entryDy=0;entryPerimeter=0;endArrow=none;endFill=0;" edge="1" parent="1" source="MFRBWr90Yql4F0Qcdxg9-31" target="MFRBWr90Yql4F0Qcdxg9-26">
          <mxGeometry relative="1" as="geometry" />
        </mxCell>
        <mxCell id="MFRBWr90Yql4F0Qcdxg9-37" style="rounded=0;orthogonalLoop=1;jettySize=auto;html=1;exitX=0;exitY=0;exitDx=0;exitDy=0;entryX=0.85;entryY=1.017;entryDx=0;entryDy=0;entryPerimeter=0;endArrow=none;endFill=0;" edge="1" parent="1" source="MFRBWr90Yql4F0Qcdxg9-28" target="MFRBWr90Yql4F0Qcdxg9-26">
          <mxGeometry relative="1" as="geometry" />
        </mxCell>
        <mxCell id="MFRBWr90Yql4F0Qcdxg9-40" value="쿠폰" style="rounded=0;whiteSpace=wrap;html=1;" vertex="1" parent="1">
          <mxGeometry x="605" y="150" width="120" height="60" as="geometry" />
        </mxCell>
        <mxCell id="MFRBWr90Yql4F0Qcdxg9-41" style="rounded=0;orthogonalLoop=1;jettySize=auto;html=1;exitX=0.5;exitY=0;exitDx=0;exitDy=0;entryX=0.25;entryY=1;entryDx=0;entryDy=0;endArrow=none;endFill=0;" edge="1" parent="1" source="MFRBWr90Yql4F0Qcdxg9-42" target="MFRBWr90Yql4F0Qcdxg9-40">
          <mxGeometry relative="1" as="geometry" />
        </mxCell>
        <mxCell id="MFRBWr90Yql4F0Qcdxg9-42" value="쿠폰 유형" style="ellipse;whiteSpace=wrap;html=1;" vertex="1" parent="1">
          <mxGeometry x="610" y="230" width="45" height="30" as="geometry" />
        </mxCell>
        <mxCell id="MFRBWr90Yql4F0Qcdxg9-43" value="유효기간_끝" style="ellipse;whiteSpace=wrap;html=1;" vertex="1" parent="1">
          <mxGeometry x="725" y="230" width="45" height="30" as="geometry" />
        </mxCell>
        <mxCell id="MFRBWr90Yql4F0Qcdxg9-44" style="rounded=0;orthogonalLoop=1;jettySize=auto;html=1;exitX=0;exitY=0.5;exitDx=0;exitDy=0;entryX=1;entryY=0.25;entryDx=0;entryDy=0;endArrow=none;endFill=0;" edge="1" parent="1" source="MFRBWr90Yql4F0Qcdxg9-45" target="MFRBWr90Yql4F0Qcdxg9-40">
          <mxGeometry relative="1" as="geometry" />
        </mxCell>
        <mxCell id="MFRBWr90Yql4F0Qcdxg9-45" value="유저 id" style="ellipse;whiteSpace=wrap;html=1;fillColor=#dae8fc;strokeColor=#6c8ebf;" vertex="1" parent="1">
          <mxGeometry x="737.5" y="140" width="45" height="30" as="geometry" />
        </mxCell>
        <mxCell id="MFRBWr90Yql4F0Qcdxg9-46" style="rounded=0;orthogonalLoop=1;jettySize=auto;html=1;exitX=0;exitY=0;exitDx=0;exitDy=0;entryX=1;entryY=0.75;entryDx=0;entryDy=0;endArrow=none;endFill=0;" edge="1" parent="1" source="MFRBWr90Yql4F0Qcdxg9-47" target="MFRBWr90Yql4F0Qcdxg9-40">
          <mxGeometry relative="1" as="geometry" />
        </mxCell>
        <mxCell id="MFRBWr90Yql4F0Qcdxg9-47" value="사용상태" style="ellipse;whiteSpace=wrap;html=1;" vertex="1" parent="1">
          <mxGeometry x="730" y="190" width="45" height="30" as="geometry" />
        </mxCell>
        <mxCell id="MFRBWr90Yql4F0Qcdxg9-48" value="유효기간_시작" style="ellipse;whiteSpace=wrap;html=1;" vertex="1" parent="1">
          <mxGeometry x="666" y="230" width="45" height="30" as="geometry" />
        </mxCell>
        <mxCell id="MFRBWr90Yql4F0Qcdxg9-49" style="rounded=0;orthogonalLoop=1;jettySize=auto;html=1;exitX=0.5;exitY=0;exitDx=0;exitDy=0;entryX=0;entryY=1;entryDx=0;entryDy=0;endArrow=none;endFill=0;" edge="1" parent="1" source="MFRBWr90Yql4F0Qcdxg9-50" target="MFRBWr90Yql4F0Qcdxg9-40">
          <mxGeometry relative="1" as="geometry" />
        </mxCell>
        <mxCell id="MFRBWr90Yql4F0Qcdxg9-50" value="쿠폰 번호" style="ellipse;whiteSpace=wrap;html=1;fontStyle=4" vertex="1" parent="1">
          <mxGeometry x="560" y="220" width="45" height="30" as="geometry" />
        </mxCell>
        <mxCell id="MFRBWr90Yql4F0Qcdxg9-51" style="rounded=0;orthogonalLoop=1;jettySize=auto;html=1;exitX=0.5;exitY=0;exitDx=0;exitDy=0;entryX=0.625;entryY=1.017;entryDx=0;entryDy=0;entryPerimeter=0;endArrow=none;endFill=0;" edge="1" parent="1" source="MFRBWr90Yql4F0Qcdxg9-48" target="MFRBWr90Yql4F0Qcdxg9-40">
          <mxGeometry relative="1" as="geometry" />
        </mxCell>
        <mxCell id="MFRBWr90Yql4F0Qcdxg9-52" style="rounded=0;orthogonalLoop=1;jettySize=auto;html=1;exitX=0;exitY=0;exitDx=0;exitDy=0;entryX=0.85;entryY=1.017;entryDx=0;entryDy=0;entryPerimeter=0;endArrow=none;endFill=0;" edge="1" parent="1" source="MFRBWr90Yql4F0Qcdxg9-43" target="MFRBWr90Yql4F0Qcdxg9-40">
          <mxGeometry relative="1" as="geometry" />
        </mxCell>
        <mxCell id="MFRBWr90Yql4F0Qcdxg9-53" value="스토어 교환권" style="rounded=0;whiteSpace=wrap;html=1;" vertex="1" parent="1">
          <mxGeometry x="585" y="305" width="120" height="60" as="geometry" />
        </mxCell>
        <mxCell id="MFRBWr90Yql4F0Qcdxg9-54" style="rounded=0;orthogonalLoop=1;jettySize=auto;html=1;exitX=0.5;exitY=0;exitDx=0;exitDy=0;entryX=0.25;entryY=1;entryDx=0;entryDy=0;endArrow=none;endFill=0;" edge="1" parent="1" source="MFRBWr90Yql4F0Qcdxg9-55" target="MFRBWr90Yql4F0Qcdxg9-53">
          <mxGeometry relative="1" as="geometry" />
        </mxCell>
        <mxCell id="MFRBWr90Yql4F0Qcdxg9-55" value="구분" style="ellipse;whiteSpace=wrap;html=1;" vertex="1" parent="1">
          <mxGeometry x="590" y="385" width="45" height="30" as="geometry" />
        </mxCell>
        <mxCell id="MFRBWr90Yql4F0Qcdxg9-56" value="유효기간_끝" style="ellipse;whiteSpace=wrap;html=1;" vertex="1" parent="1">
          <mxGeometry x="705" y="385" width="45" height="30" as="geometry" />
        </mxCell>
        <mxCell id="MFRBWr90Yql4F0Qcdxg9-57" style="rounded=0;orthogonalLoop=1;jettySize=auto;html=1;exitX=0;exitY=0.5;exitDx=0;exitDy=0;entryX=1;entryY=0.25;entryDx=0;entryDy=0;endArrow=none;endFill=0;" edge="1" parent="1" source="MFRBWr90Yql4F0Qcdxg9-58" target="MFRBWr90Yql4F0Qcdxg9-53">
          <mxGeometry relative="1" as="geometry" />
        </mxCell>
        <mxCell id="MFRBWr90Yql4F0Qcdxg9-58" value="교환권명" style="ellipse;whiteSpace=wrap;html=1;" vertex="1" parent="1">
          <mxGeometry x="717.5" y="295" width="45" height="30" as="geometry" />
        </mxCell>
        <mxCell id="MFRBWr90Yql4F0Qcdxg9-59" style="rounded=0;orthogonalLoop=1;jettySize=auto;html=1;exitX=0;exitY=0;exitDx=0;exitDy=0;entryX=1;entryY=0.75;entryDx=0;entryDy=0;endArrow=none;endFill=0;" edge="1" parent="1" source="MFRBWr90Yql4F0Qcdxg9-60" target="MFRBWr90Yql4F0Qcdxg9-53">
          <mxGeometry relative="1" as="geometry" />
        </mxCell>
        <mxCell id="MFRBWr90Yql4F0Qcdxg9-60" value="사용상태" style="ellipse;whiteSpace=wrap;html=1;" vertex="1" parent="1">
          <mxGeometry x="710" y="345" width="45" height="30" as="geometry" />
        </mxCell>
        <mxCell id="MFRBWr90Yql4F0Qcdxg9-61" value="유효기간_시작" style="ellipse;whiteSpace=wrap;html=1;" vertex="1" parent="1">
          <mxGeometry x="646" y="385" width="45" height="30" as="geometry" />
        </mxCell>
        <mxCell id="MFRBWr90Yql4F0Qcdxg9-62" style="rounded=0;orthogonalLoop=1;jettySize=auto;html=1;exitX=0.5;exitY=0;exitDx=0;exitDy=0;entryX=0;entryY=1;entryDx=0;entryDy=0;endArrow=none;endFill=0;" edge="1" parent="1" source="MFRBWr90Yql4F0Qcdxg9-63" target="MFRBWr90Yql4F0Qcdxg9-53">
          <mxGeometry relative="1" as="geometry" />
        </mxCell>
        <mxCell id="MFRBWr90Yql4F0Qcdxg9-63" value="스토어 교환권 id" style="ellipse;whiteSpace=wrap;html=1;fontStyle=4" vertex="1" parent="1">
          <mxGeometry x="540" y="375" width="45" height="30" as="geometry" />
        </mxCell>
        <mxCell id="MFRBWr90Yql4F0Qcdxg9-64" style="rounded=0;orthogonalLoop=1;jettySize=auto;html=1;exitX=0.5;exitY=0;exitDx=0;exitDy=0;entryX=0.625;entryY=1.017;entryDx=0;entryDy=0;entryPerimeter=0;endArrow=none;endFill=0;" edge="1" parent="1" source="MFRBWr90Yql4F0Qcdxg9-61" target="MFRBWr90Yql4F0Qcdxg9-53">
          <mxGeometry relative="1" as="geometry" />
        </mxCell>
        <mxCell id="MFRBWr90Yql4F0Qcdxg9-65" style="rounded=0;orthogonalLoop=1;jettySize=auto;html=1;exitX=0;exitY=0;exitDx=0;exitDy=0;entryX=0.85;entryY=1.017;entryDx=0;entryDy=0;entryPerimeter=0;endArrow=none;endFill=0;" edge="1" parent="1" source="MFRBWr90Yql4F0Qcdxg9-56" target="MFRBWr90Yql4F0Qcdxg9-53">
          <mxGeometry relative="1" as="geometry" />
        </mxCell>
        <mxCell id="MFRBWr90Yql4F0Qcdxg9-66" value="구매내역" style="rounded=0;whiteSpace=wrap;html=1;" vertex="1" parent="1">
          <mxGeometry x="195" y="450" width="120" height="60" as="geometry" />
        </mxCell>
        <mxCell id="MFRBWr90Yql4F0Qcdxg9-67" style="rounded=0;orthogonalLoop=1;jettySize=auto;html=1;exitX=0.5;exitY=0;exitDx=0;exitDy=0;entryX=0.25;entryY=1;entryDx=0;entryDy=0;endArrow=none;endFill=0;" edge="1" parent="1" source="MFRBWr90Yql4F0Qcdxg9-68" target="MFRBWr90Yql4F0Qcdxg9-66">
          <mxGeometry relative="1" as="geometry" />
        </mxCell>
        <mxCell id="MFRBWr90Yql4F0Qcdxg9-68" value="결제일시" style="ellipse;whiteSpace=wrap;html=1;" vertex="1" parent="1">
          <mxGeometry x="200" y="530" width="45" height="30" as="geometry" />
        </mxCell>
        <mxCell id="MFRBWr90Yql4F0Qcdxg9-69" value="주문정보" style="ellipse;whiteSpace=wrap;html=1;" vertex="1" parent="1">
          <mxGeometry x="315" y="530" width="45" height="30" as="geometry" />
        </mxCell>
        <mxCell id="MFRBWr90Yql4F0Qcdxg9-74" value="구분" style="ellipse;whiteSpace=wrap;html=1;" vertex="1" parent="1">
          <mxGeometry x="256" y="530" width="45" height="30" as="geometry" />
        </mxCell>
        <mxCell id="MFRBWr90Yql4F0Qcdxg9-75" style="rounded=0;orthogonalLoop=1;jettySize=auto;html=1;exitX=0.5;exitY=0;exitDx=0;exitDy=0;entryX=0;entryY=1;entryDx=0;entryDy=0;endArrow=none;endFill=0;" edge="1" parent="1" source="MFRBWr90Yql4F0Qcdxg9-76" target="MFRBWr90Yql4F0Qcdxg9-66">
          <mxGeometry relative="1" as="geometry" />
        </mxCell>
        <mxCell id="MFRBWr90Yql4F0Qcdxg9-76" value="구매내역 id" style="ellipse;whiteSpace=wrap;html=1;fontStyle=4" vertex="1" parent="1">
          <mxGeometry x="150" y="520" width="45" height="30" as="geometry" />
        </mxCell>
        <mxCell id="MFRBWr90Yql4F0Qcdxg9-77" style="rounded=0;orthogonalLoop=1;jettySize=auto;html=1;exitX=0.5;exitY=0;exitDx=0;exitDy=0;entryX=0.625;entryY=1.017;entryDx=0;entryDy=0;entryPerimeter=0;endArrow=none;endFill=0;" edge="1" parent="1" source="MFRBWr90Yql4F0Qcdxg9-74" target="MFRBWr90Yql4F0Qcdxg9-66">
          <mxGeometry relative="1" as="geometry" />
        </mxCell>
        <mxCell id="MFRBWr90Yql4F0Qcdxg9-78" style="rounded=0;orthogonalLoop=1;jettySize=auto;html=1;exitX=0;exitY=0;exitDx=0;exitDy=0;entryX=0.85;entryY=1.017;entryDx=0;entryDy=0;entryPerimeter=0;endArrow=none;endFill=0;" edge="1" parent="1" source="MFRBWr90Yql4F0Qcdxg9-69" target="MFRBWr90Yql4F0Qcdxg9-66">
          <mxGeometry relative="1" as="geometry" />
        </mxCell>
        <mxCell id="MFRBWr90Yql4F0Qcdxg9-81" value="예매내역" style="rounded=0;whiteSpace=wrap;html=1;" vertex="1" parent="1">
          <mxGeometry x="517.5" y="450" width="120" height="60" as="geometry" />
        </mxCell>
        <mxCell id="MFRBWr90Yql4F0Qcdxg9-82" style="rounded=0;orthogonalLoop=1;jettySize=auto;html=1;exitX=0.5;exitY=0;exitDx=0;exitDy=0;entryX=0.25;entryY=1;entryDx=0;entryDy=0;endArrow=none;endFill=0;" edge="1" parent="1" source="MFRBWr90Yql4F0Qcdxg9-83" target="MFRBWr90Yql4F0Qcdxg9-81">
          <mxGeometry relative="1" as="geometry" />
        </mxCell>
        <mxCell id="MFRBWr90Yql4F0Qcdxg9-83" value="영화명" style="ellipse;whiteSpace=wrap;html=1;" vertex="1" parent="1">
          <mxGeometry x="522.5" y="530" width="45" height="30" as="geometry" />
        </mxCell>
        <mxCell id="MFRBWr90Yql4F0Qcdxg9-85" value="예매현황 id" style="ellipse;whiteSpace=wrap;html=1;fillColor=#dae8fc;strokeColor=#6c8ebf;" vertex="1" parent="1">
          <mxGeometry x="578.5" y="530" width="45" height="30" as="geometry" />
        </mxCell>
        <mxCell id="MFRBWr90Yql4F0Qcdxg9-86" style="rounded=0;orthogonalLoop=1;jettySize=auto;html=1;exitX=0.5;exitY=0;exitDx=0;exitDy=0;entryX=0;entryY=1;entryDx=0;entryDy=0;endArrow=none;endFill=0;" edge="1" parent="1" source="MFRBWr90Yql4F0Qcdxg9-87" target="MFRBWr90Yql4F0Qcdxg9-81">
          <mxGeometry relative="1" as="geometry" />
        </mxCell>
        <mxCell id="MFRBWr90Yql4F0Qcdxg9-87" value="예매번호" style="ellipse;whiteSpace=wrap;html=1;fontStyle=4" vertex="1" parent="1">
          <mxGeometry x="472.5" y="520" width="45" height="30" as="geometry" />
        </mxCell>
        <mxCell id="MFRBWr90Yql4F0Qcdxg9-88" style="rounded=0;orthogonalLoop=1;jettySize=auto;html=1;exitX=0.5;exitY=0;exitDx=0;exitDy=0;entryX=0.625;entryY=1.017;entryDx=0;entryDy=0;entryPerimeter=0;endArrow=none;endFill=0;" edge="1" parent="1" source="MFRBWr90Yql4F0Qcdxg9-85" target="MFRBWr90Yql4F0Qcdxg9-81">
          <mxGeometry relative="1" as="geometry" />
        </mxCell>
      </root>
    </mxGraphModel>
  </diagram>
</mxfile>
